<svg id="icons" enable-background="new 0 0 64 64" height="512" viewBox="0 0 64 64" width="512" xmlns="http://www.w3.org/2000/svg"><g><g><path d="m43.497 36.001h-22.994c-.553 0-1-.447-1-1v-3c0-.553.447-1 1-1h22.994c.553 0 1 .447 1 1v3c0 .553-.447 1-1 1zm-21.994-2h20.994v-1h-20.994z"/></g><g><path d="m21.503 63.999c-.553 0-1-.447-1-1v-27.998c0-.553.447-1 1-1s1 .447 1 1v27.998c0 .553-.447 1-1 1z"/></g><g><path d="m42.497 63.999c-.553 0-1-.447-1-1v-27.998c0-.553.447-1 1-1s1 .447 1 1v27.998c0 .553-.447 1-1 1z"/></g><g><path d="m27.502 41.995h-3c-.553 0-1-.447-1-1v-3c0-.553.447-1 1-1h3c.553 0 1 .447 1 1v3c0 .553-.447 1-1 1zm-2-2h1v-1h-1z"/></g><g><path d="m33.502 41.995h-3c-.553 0-1-.447-1-1v-3c0-.553.447-1 1-1h3c.553 0 1 .447 1 1v3c0 .553-.447 1-1 1zm-2-2h1v-1h-1z"/></g><g><path d="m39.502 41.995h-3c-.553 0-1-.447-1-1v-3c0-.553.447-1 1-1h3c.553 0 1 .447 1 1v3c0 .553-.447 1-1 1zm-2-2h1v-1h-1z"/></g><g><path d="m27.502 47.995h-3c-.553 0-1-.447-1-1v-3c0-.553.447-1 1-1h3c.553 0 1 .447 1 1v3c0 .553-.447 1-1 1zm-2-2h1v-1h-1z"/></g><g><path d="m33.502 47.995h-3c-.553 0-1-.447-1-1v-3c0-.553.447-1 1-1h3c.553 0 1 .447 1 1v3c0 .553-.447 1-1 1zm-2-2h1v-1h-1z"/></g><g><path d="m39.502 47.995h-3c-.553 0-1-.447-1-1v-3c0-.553.447-1 1-1h3c.553 0 1 .447 1 1v3c0 .553-.447 1-1 1zm-2-2h1v-1h-1z"/></g><g><path d="m27.502 53.995h-3c-.553 0-1-.447-1-1v-3c0-.553.447-1 1-1h3c.553 0 1 .447 1 1v3c0 .553-.447 1-1 1zm-2-2h1v-1h-1z"/></g><g><path d="m33.502 53.995h-3c-.553 0-1-.447-1-1v-3c0-.553.447-1 1-1h3c.553 0 1 .447 1 1v3c0 .553-.447 1-1 1zm-2-2h1v-1h-1z"/></g><g><path d="m33.502 63.999h-3c-.553 0-1-.447-1-1v-7.004c0-.553.447-1 1-1h3c.553 0 1 .447 1 1v7.004c0 .553-.447 1-1 1zm-2-2h1v-5.004h-1z"/></g><g><path d="m39.502 53.995h-3c-.553 0-1-.447-1-1v-3c0-.553.447-1 1-1h3c.553 0 1 .447 1 1v3c0 .553-.447 1-1 1zm-2-2h1v-1h-1z"/></g><g><path d="m27.502 59.995h-3c-.553 0-1-.447-1-1v-3c0-.553.447-1 1-1h3c.553 0 1 .447 1 1v3c0 .553-.447 1-1 1zm-2-2h1v-1h-1z"/></g><g><path d="m39.502 59.995h-3c-.553 0-1-.447-1-1v-3c0-.553.447-1 1-1h3c.553 0 1 .447 1 1v3c0 .553-.447 1-1 1zm-2-2h1v-1h-1z"/></g><g><path d="m63 63.999h-62c-.553 0-1-.447-1-1s.447-1 1-1h62c.553 0 1 .447 1 1s-.447 1-1 1z"/></g><g><g><path d="m32.002 12.003c-2.206 0-4-1.794-4-4s1.794-4 4-4 4 1.794 4 4-1.794 4-4 4zm0-6c-1.103 0-2 .897-2 2s.897 2 2 2 2-.897 2-2-.898-2-2-2z"/></g><g><path d="m23.998 33.006c-.118 0-.239-.021-.356-.065-.516-.196-.774-.774-.578-1.291l8.002-21.002c.196-.516.773-.777 1.291-.578.516.196.774.774.578 1.291l-8.002 21.002c-.153.398-.533.643-.935.643z"/></g><g><path d="m23.998 32.996c-.553 0-1-.447-1-1v-7.998c0-.553.447-1 1-1s1 .447 1 1v7.998c0 .553-.447 1-1 1z"/></g><g><path d="m40.007 33.006c-.402 0-.782-.245-.935-.644l-8.002-21.002c-.196-.517.063-1.095.578-1.291.515-.199 1.094.063 1.291.578l8.002 21.002c.196.517-.063 1.095-.578 1.291-.117.045-.238.066-.356.066z"/></g><g><path d="m23.998 24.998c-.118 0-.239-.021-.356-.065-.516-.196-.774-.774-.578-1.291l5.478-14.377c.196-.516.774-.777 1.291-.578.516.196.774.774.578 1.291l-5.478 14.377c-.153.398-.533.643-.935.643z"/></g><g><path d="m40.007 24.998c-.402 0-.782-.245-.935-.644l-5.478-14.377c-.196-.517.063-1.095.578-1.291.515-.198 1.094.063 1.291.578l5.479 14.378c.196.517-.063 1.095-.578 1.291-.118.045-.239.065-.357.065z"/></g><g><path d="m40.007 32.996c-.553 0-1-.447-1-1v-7.998c0-.553.447-1 1-1s1 .447 1 1v7.998c0 .553-.447 1-1 1z"/></g><g><path d="m32.002 6.003c-.553 0-1-.447-1-1v-4.002c0-.553.447-1 1-1s1 .447 1 1v4.002c0 .553-.447 1-1 1z"/></g><g><path d="m36.197 23.007h-8.39c-.553 0-1-.447-1-1s.447-1 1-1h8.39c.553 0 1 .447 1 1s-.447 1-1 1z"/></g><g><path d="m32.021 9.005c-.553 0-1.005-.447-1.005-1s.442-1 .994-1h.011c.552 0 1 .447 1 1s-.448 1-1 1z"/></g><g><path d="m32 24.001c-.553 0-1-.447-1-1v-1.999c0-.553.447-1 1-1s1 .447 1 1v1.999c0 .553-.447 1-1 1z"/></g></g><g><path d="m17.001 63.999h-15c-.553 0-1-.447-1-1v-19.999c0-.553.447-1 1-1h15c.553 0 1 .447 1 1v19.999c0 .553-.447 1-1 1zm-14-2h13v-17.999h-13z"/></g><g><path d="m18 44h-17c-.553 0-1-.447-1-1v-3c0-.553.447-1 1-1h17c.553 0 1 .447 1 1v3c0 .553-.447 1-1 1zm-16-2h15v-1h-15z"/></g><g><path d="m8 50h-3c-.553 0-1-.447-1-1v-3c0-.553.447-1 1-1h3c.553 0 1 .447 1 1v3c0 .553-.447 1-1 1zm-2-2h1v-1h-1z"/></g><g><path d="m14 50h-3c-.553 0-1-.447-1-1v-3c0-.553.447-1 1-1h3c.553 0 1 .447 1 1v3c0 .553-.447 1-1 1zm-2-2h1v-1h-1z"/></g><g><path d="m8 56h-3c-.553 0-1-.447-1-1v-3c0-.553.447-1 1-1h3c.553 0 1 .447 1 1v3c0 .553-.447 1-1 1zm-2-2h1v-1h-1z"/></g><g><path d="m14 56h-3c-.553 0-1-.447-1-1v-3c0-.553.447-1 1-1h3c.553 0 1 .447 1 1v3c0 .553-.447 1-1 1zm-2-2h1v-1h-1z"/></g><g><path d="m11.003 63.999h-3c-.553 0-1-.447-1-1v-5.002c0-.553.447-1 1-1h3c.553 0 1 .447 1 1v5.002c0 .553-.447 1-1 1zm-2-2h1v-3.002h-1z"/></g><g><path d="m62.001 63.999h-15c-.553 0-1-.447-1-1v-19.999c0-.553.447-1 1-1h15c.553 0 1 .447 1 1v19.999c0 .553-.447 1-1 1zm-14-2h13v-17.999h-13z"/></g><g><path d="m63 44h-17c-.553 0-1-.447-1-1v-3c0-.553.447-1 1-1h17c.553 0 1 .447 1 1v3c0 .553-.447 1-1 1zm-16-2h15v-1h-15z"/></g><g><path d="m53 50h-3c-.553 0-1-.447-1-1v-3c0-.553.447-1 1-1h3c.553 0 1 .447 1 1v3c0 .553-.447 1-1 1zm-2-2h1v-1h-1z"/></g><g><path d="m59 50h-3c-.553 0-1-.447-1-1v-3c0-.553.447-1 1-1h3c.553 0 1 .447 1 1v3c0 .553-.447 1-1 1zm-2-2h1v-1h-1z"/></g><g><path d="m53 56h-3c-.553 0-1-.447-1-1v-3c0-.553.447-1 1-1h3c.553 0 1 .447 1 1v3c0 .553-.447 1-1 1zm-2-2h1v-1h-1z"/></g><g><path d="m59 56h-3c-.553 0-1-.447-1-1v-3c0-.553.447-1 1-1h3c.553 0 1 .447 1 1v3c0 .553-.447 1-1 1zm-2-2h1v-1h-1z"/></g><g><path d="m56.003 63.999h-3c-.553 0-1-.447-1-1v-5.002c0-.553.447-1 1-1h3c.553 0 1 .447 1 1v5.002c0 .553-.447 1-1 1zm-2-2h1v-3.002h-1z"/></g><g><path d="m9.5 36c-4.687 0-8.5-3.813-8.5-8.5s3.813-8.5 8.5-8.5 8.5 3.813 8.5 8.5-3.813 8.5-8.5 8.5zm0-15c-3.584 0-6.5 2.916-6.5 6.5s2.916 6.5 6.5 6.5 6.5-2.916 6.5-6.5-2.916-6.5-6.5-6.5z"/></g><g><path d="m8.001 30.998c-.256 0-.512-.098-.707-.293l-1.001-1c-.391-.39-.391-1.023 0-1.414s1.023-.391 1.414 0l1.001 1c.391.39.391 1.023 0 1.414-.195.195-.451.293-.707.293z"/></g><g><path d="m8.001 30.998c-.256 0-.512-.098-.707-.293-.391-.391-.391-1.023 0-1.414l3.92-3.92c.391-.391 1.023-.391 1.414 0s.391 1.023 0 1.414l-3.92 3.92c-.195.195-.451.293-.707.293z"/></g><g><path d="m54.498 36c-4.687 0-8.5-3.813-8.5-8.5s3.813-8.5 8.5-8.5 8.5 3.813 8.5 8.5-3.813 8.5-8.5 8.5zm0-15c-3.584 0-6.5 2.916-6.5 6.5s2.916 6.5 6.5 6.5 6.5-2.916 6.5-6.5-2.916-6.5-6.5-6.5z"/></g><g><path d="m52.999 30.998c-.256 0-.512-.098-.707-.293l-1.001-1c-.391-.39-.391-1.023 0-1.414s1.023-.391 1.414 0l1.001 1c.391.39.391 1.023 0 1.414-.195.195-.451.293-.707.293z"/></g><g><path d="m52.999 30.998c-.256 0-.512-.098-.707-.293-.391-.391-.391-1.023 0-1.414l3.92-3.92c.391-.391 1.023-.391 1.414 0s.391 1.023 0 1.414l-3.92 3.92c-.195.195-.451.293-.707.293z"/></g></g></svg>