<?xml version="1.0" encoding="iso-8859-1"?>
<!-- Generator: Adobe Illustrator 19.0.0, SVG Export Plug-In . SVG Version: 6.00 Build 0)  -->
<svg version="1.1" id="Layer_1" xmlns="http://www.w3.org/2000/svg" xmlns:xlink="http://www.w3.org/1999/xlink" x="0px" y="0px"
	 viewBox="0 0 512.001 512.001" style="enable-background:new 0 0 512.001 512.001;" xml:space="preserve">
<g>
	<g>
		<path d="M499.998,0H109.171H12.003C5.374,0,0.001,5.373,0.001,12.002v147.578v43.608v59.413v237.396
			c0,6.629,5.373,12.002,12.002,12.002h62.562H202.19h77.044h78.359h142.405c6.629,0,12.002-5.373,12.002-12.002V12.002
			C512.001,5.373,506.627,0,499.998,0z M24.005,24.005h73.163v86.366c0,20.516-16.692,37.208-37.208,37.208H24.005V24.005z
			 M24.005,215.19h141.377v35.408H24.005V215.19z M190.188,487.995h-39.808v0v-60.12c0-6.629-5.373-12.002-12.002-12.002
			c-6.629,0-12.002,5.373-12.002,12.002v60.12H86.567V364.022h103.621V487.995z M267.234,420.791c0,0.022-0.004,0.043-0.004,0.065
			l0.001,67.139h-53.039V352.02c0-6.629-5.374-12.002-12.002-12.002H74.565c-6.629,0-12.002,5.373-12.002,12.002v135.976H24.005
			V274.604h153.379c6.629,0,12.002-5.373,12.002-12.002V215.19h42.298c-25.704,15.952-42.864,44.41-42.864,76.81
			c0,6.629,5.374,12.002,12.002,12.002h66.411V420.791z M267.234,279.998h-53.32c4.956-26.989,26.308-48.321,53.32-53.268V279.998z
			 M267.235,191.186h-89.85H24.005v-19.604h35.956c33.753,0,61.212-27.459,61.212-61.212V24.005h101.352
			c-20.537,16.579-33.704,41.928-33.704,70.305c0,6.629,5.373,12.002,12.002,12.002h66.411V191.186z M267.235,82.308h-53.321
			c4.956-26.987,26.308-48.322,53.321-53.268V82.308z M291.237,487.995V433.96c27.029,5.019,48.387,26.667,53.29,54.035H291.237z
			 M368.786,487.995c-5.327-40.635-37.277-72.893-77.549-78.312V292.021c0-0.007,0.001-0.013,0.001-0.02v-76.81h112.278
			c6.629,0,12.002-5.373,12.002-12.002c0-6.629-5.373-12.002-12.002-12.002H291.239V94.316c0-0.002,0-0.004,0-0.006V24.005h196.756
			v463.99H368.786z"/>
	</g>
</g>
<g>
	<g>
		<path d="M454.893,200.837c-0.156-0.756-0.384-1.512-0.684-2.244c-0.3-0.72-0.672-1.416-1.104-2.064
			c-0.432-0.66-0.936-1.272-1.488-1.824c-0.552-0.552-1.164-1.056-1.824-1.5c-0.648-0.432-1.356-0.792-2.076-1.092
			s-1.476-0.54-2.244-0.684c-1.548-0.312-3.145-0.312-4.693,0c-0.768,0.144-1.524,0.384-2.244,0.684s-1.416,0.66-2.076,1.092
			c-0.648,0.444-1.26,0.948-1.824,1.5c-0.552,0.552-1.044,1.164-1.488,1.824c-0.432,0.648-0.804,1.344-1.104,2.064
			c-0.3,0.732-0.528,1.488-0.684,2.244c-0.156,0.78-0.228,1.572-0.228,2.352c0,0.78,0.072,1.572,0.228,2.341
			c0.156,0.768,0.384,1.524,0.684,2.244c0.3,0.732,0.672,1.428,1.104,2.076c0.444,0.66,0.936,1.272,1.488,1.824
			c0.564,0.552,1.176,1.056,1.824,1.488c0.66,0.432,1.356,0.804,2.076,1.104s1.476,0.54,2.244,0.684
			c0.78,0.156,1.56,0.24,2.352,0.24c0.78,0,1.56-0.084,2.341-0.24c0.768-0.144,1.524-0.384,2.244-0.684s1.428-0.672,2.076-1.104
			c0.66-0.432,1.272-0.936,1.824-1.488c0.552-0.552,1.056-1.164,1.488-1.824c0.432-0.648,0.804-1.344,1.104-2.076
			c0.3-0.72,0.528-1.476,0.684-2.244c0.156-0.768,0.24-1.56,0.24-2.341S455.049,201.617,454.893,200.837z"/>
	</g>
</g>
<g>
	<g>
		<path d="M388.027,36.355c-38.385,0-69.614,31.229-69.614,69.614c0,38.385,31.229,69.614,69.614,69.614
			c38.385,0,69.614-31.229,69.614-69.614C457.642,67.585,426.412,36.355,388.027,36.355z M388.027,151.579
			c-25.149,0-45.609-20.461-45.609-45.609c0-25.149,20.461-45.609,45.609-45.609c25.149,0,45.609,20.461,45.609,45.609
			C433.637,131.118,413.176,151.579,388.027,151.579z"/>
	</g>
</g>
<g>
	<g>
		<path d="M150.139,385.926c-0.144-0.768-0.384-1.524-0.684-2.245c-0.3-0.732-0.672-1.428-1.104-2.076
			c-0.432-0.66-0.936-1.272-1.488-1.824c-2.785-2.785-6.937-4.069-10.826-3.277c-0.768,0.144-1.524,0.384-2.244,0.684
			c-0.732,0.3-1.428,0.672-2.076,1.104c-0.66,0.432-1.272,0.936-1.824,1.488c-0.552,0.552-1.056,1.164-1.488,1.824
			c-0.432,0.648-0.804,1.344-1.104,2.076c-0.3,0.72-0.54,1.476-0.684,2.244c-0.156,0.768-0.24,1.56-0.24,2.341
			c0,0.78,0.084,1.572,0.24,2.341c0.144,0.768,0.384,1.524,0.684,2.244c0.3,0.732,0.672,1.428,1.104,2.076
			c0.432,0.66,0.936,1.272,1.488,1.824c0.552,0.552,1.164,1.056,1.824,1.488c0.648,0.432,1.344,0.804,2.076,1.104
			c0.72,0.3,1.476,0.54,2.244,0.684c0.768,0.156,1.56,0.24,2.34,0.24c3.157,0,6.253-1.284,8.486-3.517
			c0.552-0.552,1.056-1.164,1.488-1.824c0.432-0.648,0.804-1.344,1.104-2.076c0.3-0.72,0.54-1.476,0.684-2.244
			c0.156-0.768,0.24-1.56,0.24-2.34S150.295,386.695,150.139,385.926z"/>
	</g>
</g>
<g>
</g>
<g>
</g>
<g>
</g>
<g>
</g>
<g>
</g>
<g>
</g>
<g>
</g>
<g>
</g>
<g>
</g>
<g>
</g>
<g>
</g>
<g>
</g>
<g>
</g>
<g>
</g>
<g>
</g>
</svg>
