<svg enable-background="new 0 0 24 24" height="512" viewBox="0 0 24 24" width="512" xmlns="http://www.w3.org/2000/svg"><path d="m21.5 21h-19c-.276 0-.5-.224-.5-.5s.224-.5.5-.5h19c.276 0 .5.224.5.5s-.224.5-.5.5z"/><path d="m21.5 10h-19c-.276 0-.5-.224-.5-.5s.224-.5.5-.5h19c.276 0 .5.224.5.5s-.224.5-.5.5z"/><path d="m19.5 21h-7c-.276 0-.5-.224-.5-.5v-7c0-.276.224-.5.5-.5h7c.276 0 .5.224.5.5v7c0 .276-.224.5-.5.5zm-6.5-1h6v-6h-6z"/><path d="m16 17c-.276 0-.5-.224-.5-.5v-3c0-.276.224-.5.5-.5s.5.224.5.5v3c0 .276-.224.5-.5.5z"/><path d="m12.5 10h-7c-.276 0-.5-.224-.5-.5v-7c0-.276.224-.5.5-.5h7c.276 0 .5.224.5.5v7c0 .276-.224.5-.5.5zm-6.5-1h6v-6h-6z"/><path d="m9 6c-.276 0-.5-.224-.5-.5v-3c0-.276.224-.5.5-.5s.5.224.5.5v3c0 .276-.224.5-.5.5z"/><path d="m10.5 21h-6c-.276 0-.5-.224-.5-.5v-6c0-.276.224-.5.5-.5h6c.276 0 .5.224.5.5v6c0 .276-.224.5-.5.5zm-5.5-1h5v-5h-5z"/><path d="m7.5 17c-.276 0-.5-.224-.5-.5v-2c0-.276.224-.5.5-.5s.5.224.5.5v2c0 .276-.224.5-.5.5z"/><path d="m2.5 24h-2c-.276 0-.5-.224-.5-.5v-23c0-.276.224-.5.5-.5h2c.276 0 .5.224.5.5v23c0 .276-.224.5-.5.5zm-1.5-1h1v-22h-1z"/><path d="m23.5 24h-2c-.276 0-.5-.224-.5-.5v-23c0-.276.224-.5.5-.5h2c.276 0 .5.224.5.5v23c0 .276-.224.5-.5.5zm-1.5-1h1v-22h-1z"/></svg>